<?xml version="1.0" standalone="no"?>
<!DOCTYPE svg PUBLIC "-//W3C//DTD SVG 20010904//EN"
 "http://www.w3.org/TR/2001/REC-SVG-20010904/DTD/svg10.dtd">
<svg version="1.0" xmlns="http://www.w3.org/2000/svg"
 width="612.000000pt" height="490.000000pt" viewBox="0 0 612.000000 490.000000"
 preserveAspectRatio="xMidYMid meet">

<g transform="translate(0.000000,490.000000) scale(0.100000,-0.100000)"
fill="#000000" stroke="none">
<path d="M3283 3775 c-88 -27 -176 -96 -206 -162 -8 -18 -13 -20 -20 -11 -6 9
-7 5 -4 -10 7 -32 -2 -59 -14 -40 -13 19 -11 62 4 77 10 11 8 11 -10 2 -13 -7
-24 -7 -28 -2 -3 5 3 11 12 13 15 3 14 5 -5 10 -12 3 -20 2 -16 -3 3 -5 -4 -9
-16 -9 -12 0 -19 4 -15 10 3 5 -7 5 -25 -1 -36 -13 -40 -22 -6 -13 13 3 27 1
30 -5 4 -7 1 -8 -8 -5 -9 3 -16 2 -16 -3 0 -4 -15 -8 -32 -8 -31 0 -33 -2 -33
-37 0 -21 4 -38 9 -38 6 0 5 -5 -1 -11 -6 -6 -21 -9 -34 -7 -17 2 -25 12 -30
37 -6 30 -22 50 -40 51 -4 0 -6 -11 -6 -25 0 -14 3 -25 7 -25 11 0 0 -39 -12
-46 -6 -4 -14 0 -19 7 -5 9 -3 16 9 21 15 6 15 7 -2 7 -14 1 -17 6 -13 24 8
29 -6 52 -28 43 -9 -3 -22 -3 -28 1 -7 4 -2 10 13 14 14 5 -1 6 -34 3 -33 -2
-62 -7 -65 -10 -3 -4 4 -4 17 -1 20 5 22 2 22 -39 0 -42 -1 -44 -29 -44 -45 0
-89 -19 -87 -38 1 -12 -7 -17 -23 -17 -34 0 -38 22 -7 36 14 7 26 16 26 21 0
5 10 6 21 3 15 -5 19 -4 15 4 -4 6 -2 11 4 11 6 0 8 5 5 10 -4 7 -12 7 -25 0
-10 -5 -31 -15 -46 -20 -25 -10 -26 -9 -13 7 11 14 9 14 -13 -2 -15 -11 -26
-25 -23 -32 2 -7 -2 -10 -11 -6 -7 3 -14 1 -14 -5 0 -6 6 -13 13 -15 10 -4 10
-6 0 -6 -18 -1 -16 -21 2 -21 8 0 15 5 15 10 0 6 5 10 10 10 21 0 9 -19 -19
-28 -32 -11 -50 5 -28 27 8 8 8 11 -1 11 -11 0 -35 -35 -38 -55 -1 -5 -2 -14
-3 -20 -1 -5 -6 -3 -11 5 -7 11 -9 5 -5 -20 4 -28 3 -31 -5 -15 -8 16 -9 10
-5 -24 5 -39 4 -43 -10 -31 -10 8 -15 9 -15 1 0 -6 5 -11 10 -11 6 0 10 -9 10
-19 0 -11 5 -23 12 -27 8 -5 9 -2 5 9 -3 9 0 28 8 43 l13 26 12 -22 c6 -12 9
-33 5 -47 -3 -15 0 -32 7 -41 8 -10 9 -13 1 -9 -6 4 -14 1 -17 -5 -3 -7 -4 8
-2 35 2 26 -1 47 -6 47 -16 0 -7 -128 9 -135 10 -3 13 -13 9 -29 -3 -12 -3
-26 1 -30 4 -4 9 -19 11 -34 4 -32 20 -44 47 -35 18 5 18 5 1 -12 -13 -13 -14
-21 -6 -29 8 -8 13 -7 20 4 8 12 10 10 10 -9 0 -16 -4 -22 -15 -17 -24 9 -18
-20 10 -48 14 -14 25 -32 25 -41 0 -8 4 -15 9 -15 5 0 7 10 5 23 -3 15 -1 13
7 -7 10 -24 15 -27 40 -22 36 7 116 65 122 89 6 22 47 23 47 1 0 -14 -3 -14
-15 -4 -9 7 -18 10 -22 6 -3 -3 -2 -6 4 -6 6 0 14 -7 17 -16 5 -14 4 -15 -9
-4 -16 13 -21 1 -6 -15 5 -6 12 -21 15 -35 l7 -25 -14 23 c-13 22 -13 21 -14
-14 -1 -21 2 -32 5 -27 4 6 7 -11 7 -37 0 -26 -3 -43 -7 -37 -4 7 -8 23 -8 37
0 19 -3 21 -9 11 -5 -8 -7 -20 -4 -27 3 -8 -2 -21 -11 -29 -9 -9 -16 -23 -16
-30 0 -8 -9 -17 -20 -20 -11 -4 -18 -11 -15 -16 3 -5 -1 -6 -9 -3 -9 3 -16 2
-16 -4 0 -6 14 -15 32 -21 23 -8 29 -14 21 -22 -14 -14 -49 -7 -45 9 3 18 -26
26 -43 12 -8 -7 -15 -23 -15 -37 0 -13 -4 -22 -8 -19 -5 3 -5 -18 -2 -45 l7
-51 -29 4 c-25 4 -29 2 -24 -15 3 -13 -1 -21 -14 -24 -27 -7 -32 -39 -8 -55
17 -12 16 -13 -18 -14 -28 0 -33 2 -22 10 8 6 13 16 11 23 -2 7 1 22 8 35 l12
23 -22 -19 c-12 -11 -19 -26 -17 -33 3 -7 -1 -13 -10 -13 -9 0 -13 5 -9 13 4
6 -12 -8 -34 -32 -23 -24 -39 -46 -36 -49 3 -3 11 0 17 6 16 16 28 15 28 -3 0
-9 -9 -15 -22 -15 -21 -1 -21 -2 -7 -13 14 -11 15 -16 4 -30 -12 -16 -14 -15
-24 15 -11 30 -13 31 -23 14 -13 -23 -22 -137 -8 -116 7 12 11 10 18 -10 5
-14 8 -28 5 -32 -2 -4 4 -5 13 -1 11 4 15 3 11 -4 -4 -6 -4 -13 0 -16 5 -2 3
-2 -4 -1 -17 4 -25 -26 -11 -43 7 -8 17 -25 23 -37 7 -11 17 -20 23 -19 6 2 9
-5 6 -15 -5 -15 -4 -15 9 1 14 17 15 15 12 -17 -2 -20 1 -39 7 -42 6 -4 8 -2
4 4 -3 6 3 14 16 18 22 7 48 -16 48 -43 0 -7 7 -13 15 -13 10 0 15 -10 15 -33
0 -20 8 -39 20 -50 20 -17 29 -64 10 -52 -6 4 -8 11 -5 16 4 5 1 9 -4 9 -6 0
-11 -5 -11 -11 0 -5 -4 -7 -10 -4 -5 3 -10 1 -10 -5 0 -7 7 -10 15 -6 10 3 15
-1 15 -14 0 -23 -25 -50 -48 -51 -11 0 -12 -2 -4 -6 6 -2 12 -9 12 -15 0 -6
-7 -8 -15 -5 -8 4 -17 2 -20 -3 -14 -23 -42 -29 -69 -15 -14 8 -24 10 -21 5 7
-11 -9 -13 -43 -3 -18 4 -20 8 -10 14 9 6 7 9 -9 9 -12 0 -23 -5 -25 -11 -2
-7 -20 -12 -38 -13 -26 -1 -34 -5 -32 -17 1 -11 -5 -15 -20 -14 -24 2 -79 -46
-77 -67 0 -10 2 -10 6 0 9 24 23 12 17 -15 -6 -26 -5 -26 17 7 13 19 23 41 23
49 1 8 7 16 15 19 8 3 11 0 7 -7 -8 -12 38 4 63 23 15 12 67 9 92 -5 10 -5 21
-3 29 4 10 10 12 9 7 -5 -4 -12 1 -19 16 -24 12 -3 32 -16 45 -27 30 -28 28
-8 -3 21 -15 14 -29 21 -37 16 -9 -6 -9 -3 1 9 15 19 46 24 35 6 -5 -8 -1 -8
14 0 11 6 23 16 25 23 4 10 6 10 6 1 1 -7 8 -13 16 -13 8 0 15 -4 15 -10 0
-13 -13 -13 -26 0 -8 8 -15 6 -25 -6 -11 -14 -11 -18 5 -30 12 -9 17 -21 14
-38 -3 -14 -1 -31 3 -38 6 -9 9 -6 9 10 0 33 15 27 17 -8 1 -17 -2 -30 -7 -30
-6 0 -10 -15 -10 -34 0 -18 -6 -52 -14 -74 -13 -36 -13 -40 0 -35 8 3 14 0 14
-6 0 -6 -3 -11 -7 -12 -5 0 -17 -3 -28 -6 -11 -3 -45 -6 -77 -7 -56 -2 -56 -2
-53 25 3 22 0 26 -14 22 -33 -8 -38 49 -5 61 19 7 44 -3 44 -19 0 -8 9 -17 21
-20 31 -10 20 -41 -14 -37 -15 2 -27 -2 -27 -9 0 -6 6 -9 14 -6 8 3 16 1 18
-4 2 -5 14 0 26 12 13 11 21 28 18 36 -3 8 -1 11 4 8 6 -3 10 3 10 14 0 12 5
21 10 21 6 0 10 15 9 33 -1 30 -1 31 -9 7 -7 -22 -8 -23 -9 -4 -2 34 -31 84
-50 84 -9 0 -28 -7 -41 -16 -22 -14 -21 -12 3 10 16 15 34 23 40 20 7 -4 5 1
-3 10 -41 43 -161 12 -195 -50 -10 -19 -16 -37 -13 -40 3 -3 12 8 19 24 15 35
50 39 69 8 10 -17 10 -18 0 -9 -10 9 -17 6 -34 -15 -12 -15 -20 -31 -18 -36 2
-6 4 -23 4 -37 1 -18 5 -25 13 -22 7 2 16 -1 21 -8 5 -8 3 -10 -6 -4 -7 4 -16
2 -21 -6 -8 -12 -11 -12 -19 1 -5 8 -10 11 -10 6 0 -6 10 -20 22 -33 20 -21
22 -21 34 -5 11 15 14 15 38 -9 l26 -27 -22 -6 c-13 -3 -34 -6 -47 -6 -64 0
-514 -110 -653 -159 -86 -31 -207 -80 -198 -81 3 0 67 11 142 25 937 167 2111
159 3018 -21 l25 -5 -25 14 c-46 27 -313 114 -460 151 -170 42 -396 82 -562
98 l-118 12 -6 35 c-18 95 18 312 84 507 41 119 41 125 -1 171 -11 13 -18 26
-14 29 7 7 42 -17 155 -107 121 -96 192 -135 332 -179 183 -57 204 -62 234
-51 73 28 138 222 177 525 31 247 24 230 93 238 280 35 419 359 251 587 -167
227 -513 190 -633 -67 -24 -50 -27 -69 -27 -157 0 -88 3 -106 27 -155 15 -30
50 -77 77 -104 l50 -50 -21 -35 c-12 -20 -48 -71 -81 -114 -33 -43 -63 -91
-67 -105 -8 -30 -6 -33 -40 60 -50 136 -199 226 -380 229 -46 0 -59 3 -45 9
11 5 32 9 47 9 41 1 42 16 4 79 -44 72 -57 85 -136 123 l-62 30 6 52 c4 29 11
55 15 60 4 4 34 -3 68 -15 51 -19 65 -20 87 -10 15 6 29 20 32 29 36 106 54
138 79 141 35 4 38 17 27 98 -8 56 -7 72 5 86 8 9 17 45 20 80 5 51 10 67 31
84 21 17 24 26 18 55 -15 79 -78 139 -194 183 -126 48 -242 59 -329 31z m-193
-230 c-5 -6 -10 -28 -12 -50 l-3 -40 -5 48 c-3 26 -1 58 3 70 9 21 9 21 17 2
4 -11 4 -25 0 -30z m-232 -56 c12 0 22 -4 22 -10 0 -5 -5 -7 -10 -4 -6 4 -17
2 -24 -4 -17 -14 -66 -10 -66 5 0 18 13 26 35 19 11 -4 30 -6 43 -6z m-295
-23 c4 -9 -2 -13 -16 -12 -11 1 -22 7 -25 14 -5 17 34 16 41 -2z m545 -38 c0
-50 0 -51 -8 -18 -8 30 -5 70 4 70 2 0 3 -24 4 -52z m-51 5 c-3 -10 -5 -4 -5
12 0 17 2 24 5 18 2 -7 2 -21 0 -30z m-661 -33 c0 -25 -4 -34 -9 -25 -6 12 0
65 8 65 1 0 2 -18 1 -40z m698 -29 c3 -25 10 -47 14 -50 5 -3 12 -22 16 -41
10 -52 -9 -25 -33 47 -21 63 -29 133 -12 103 5 -8 12 -35 15 -59z m-34 -88 c0
-13 -4 -23 -10 -23 -5 0 -10 -7 -10 -15 0 -8 -4 -15 -10 -15 -5 0 -10 5 -10
10 0 22 -28 8 -34 -16 -7 -27 9 -58 25 -48 5 3 9 -3 9 -12 0 -10 2 -15 5 -12
4 3 3 18 -1 33 -5 20 -9 24 -16 13 -8 -11 -9 -10 -6 1 6 20 33 22 35 2 1 -9 5
-29 9 -45 4 -16 3 -27 -2 -23 -5 3 -10 -6 -11 -20 0 -14 -17 -48 -37 -76 -31
-45 -34 -54 -22 -72 7 -11 16 -29 19 -40 7 -20 7 -20 -8 -1 -8 11 -15 24 -15
30 0 5 -2 7 -5 4 -3 -3 -1 -18 5 -34 10 -27 9 -28 -6 -9 -8 11 -13 29 -11 41
2 11 -2 25 -9 32 -19 18 -26 15 -19 -9 5 -16 3 -20 -6 -17 -8 3 -14 9 -15 14
-2 19 -16 70 -25 89 -13 28 -8 84 7 78 8 -3 11 -16 7 -36 -2 -18 2 -48 11 -67
l15 -35 2 40 c2 34 3 36 6 10 3 -16 12 -38 20 -50 15 -19 15 -19 8 0 -22 59
-33 130 -24 153 5 14 7 45 3 70 l-7 45 -13 -29 c-10 -21 -12 -22 -9 -6 10 46
17 62 25 62 5 0 12 -9 15 -20 9 -29 35 -25 35 5 0 18 5 25 20 25 11 0 19 -3
19 -7 -3 -19 2 -33 11 -33 6 0 10 15 10 33 0 24 3 28 10 17 5 -8 10 -25 10
-37z m-156 -7 c-3 -15 -8 -25 -11 -23 -2 3 -1 17 3 31 3 15 8 25 11 23 2 -3 1
-17 -3 -31z m194 -51 c2 -11 10 -27 18 -35 7 -9 20 -32 29 -53 13 -32 13 -36
0 -31 -8 4 -15 15 -15 25 0 10 -5 17 -12 14 -16 -5 -58 58 -58 86 0 27 33 21
38 -6z m57 -57 c3 -7 -1 -4 -9 6 -9 11 -16 29 -15 40 1 17 2 16 9 -6 4 -14 11
-32 15 -40z m-269 -6 c-12 -11 -17 7 -9 34 l8 29 3 -28 c2 -16 1 -31 -2 -35z
m1641 0 c126 -65 179 -237 109 -357 -54 -92 -143 -141 -244 -133 -132 9 -229
103 -239 232 -11 130 60 236 185 277 44 14 144 4 189 -19z m-1970 -25 c1 -2 5
-17 7 -33 2 -16 1 -22 -2 -14 -4 12 -6 11 -13 -5 -6 -17 -8 -17 -8 -2 -1 9 -6
17 -12 17 -7 0 -9 -11 -5 -27 5 -25 4 -26 -5 -7 -6 12 -21 27 -33 33 -19 9
-18 10 7 5 16 -4 27 -2 27 5 0 6 -8 12 -17 12 -15 1 -14 2 2 7 l20 5 -20 9
c-15 6 -11 7 14 3 19 -3 36 -7 38 -8z m629 -25 c-9 -8 -26 10 -26 26 1 15 2
15 15 -2 8 -11 13 -21 11 -24z m-106 9 c0 -5 16 -16 35 -25 19 -9 35 -19 35
-21 0 -7 -62 14 -76 26 -16 13 -18 29 -4 29 6 0 10 -4 10 -9z m160 -50 c24
-11 24 -11 -5 -6 -16 4 -34 10 -39 15 -11 11 11 7 44 -9z m-53 -7 c-3 -3 -12
-4 -19 -1 -8 3 -5 6 6 6 11 1 17 -2 13 -5z m-560 -89 c8 -8 19 -13 24 -10 14
9 11 -5 -6 -21 -13 -14 -15 -14 -15 1 0 13 -6 16 -25 11 -14 -4 -25 -2 -25 4
0 5 8 10 18 10 14 0 15 2 2 10 -11 7 -12 10 -2 10 7 0 20 -7 29 -15z m-131
-22 c-10 -10 -19 5 -10 18 6 11 8 11 12 0 2 -7 1 -15 -2 -18z m47 6 c3 -12 10
-18 16 -14 6 3 11 -1 11 -9 0 -9 5 -16 11 -16 6 0 3 -7 -5 -16 -20 -19 -36
-10 -36 21 0 13 -4 27 -10 30 -12 8 -13 25 -1 25 5 0 11 -9 14 -21z m497 -125
c0 -13 -28 24 -34 46 -6 20 -4 19 13 -8 12 -18 21 -35 21 -38z m-27 -14 c-6
-6 -33 30 -33 44 0 6 9 0 20 -14 10 -14 16 -27 13 -30z m-73 20 c0 -24 -35
-28 -44 -5 -7 18 5 20 23 3 7 -7 12 -8 11 -3 -3 14 -1 25 5 25 3 0 5 -9 5 -20z
m39 -10 c11 -24 11 -24 -3 -6 -9 11 -16 24 -16 30 0 12 5 7 19 -24z m86 -65
c15 -25 19 -95 5 -115 -7 -11 -8 -6 -4 18 5 22 3 32 -6 32 -9 0 -10 10 -6 35
4 22 3 35 -4 35 -5 0 -9 12 -9 28 1 20 3 22 6 7 3 -10 11 -28 18 -40z m-358
-52 c8 -10 11 -12 7 -4 -5 9 -3 12 4 7 15 -9 16 -53 2 -61 -11 -7 -59 43 -60
63 0 18 31 15 47 -5z m-144 -53 c-3 -12 -8 -19 -11 -16 -5 6 5 36 12 36 2 0 2
-9 -1 -20z m484 -12 c-3 -8 -6 -5 -6 6 -1 11 2 17 5 13 3 -3 4 -12 1 -19z m53
-108 c-3 -39 -5 -35 -11 35 -4 44 -4 85 -1 90 10 14 18 -71 12 -125z m-23 48
c-3 -8 -6 -5 -6 6 -1 11 2 17 5 13 3 -3 4 -12 1 -19z m-519 -34 c-3 -14 -5
-12 -10 9 -3 19 -2 25 4 19 6 -6 8 -18 6 -28z m499 -6 c-3 -7 -5 -2 -5 12 0
14 2 19 5 13 2 -7 2 -19 0 -25z m20 -45 c-3 -10 -5 -2 -5 17 0 19 2 27 5 18 2
-10 2 -26 0 -35z m-16 -68 c5 15 6 16 5 2 -2 -39 -21 -19 -22 23 l-2 45 7 -45
c5 -31 9 -39 12 -25z m26 -2 c-3 -10 -5 -4 -5 12 0 17 2 24 5 18 2 -7 2 -21 0
-30z m-691 -29 c2 -29 2 -29 -3 -1 -4 26 -23 39 -23 15 0 -6 -3 -9 -6 -5 -9 9
6 29 19 24 7 -2 13 -17 13 -33z m131 14 c-3 -8 -6 -5 -6 6 -1 11 2 17 5 13 3
-3 4 -12 1 -19z m549 -78 c-10 -39 -14 -47 -15 -27 -1 16 -4 26 -8 24 -5 -3
-9 11 -10 31 l-1 37 9 -32 c5 -18 12 -33 15 -33 3 0 3 15 -1 33 -5 24 -4 28 4
17 9 -13 11 -12 12 5 0 11 2 16 5 10 2 -5 -3 -35 -10 -65z m-519 54 c-3 -3
-12 -4 -19 -1 -8 3 -5 6 6 6 11 1 17 -2 13 -5z m-74 -21 c-7 -2 -19 -2 -25 0
-7 3 -2 5 12 5 14 0 19 -2 13 -5z m-176 -55 c-3 -7 -5 -2 -5 12 0 14 2 19 5
13 2 -7 2 -19 0 -25z m70 -63 c0 -41 -3 -75 -7 -75 -3 0 -7 6 -8 13 -1 6 -4
24 -8 39 -7 31 3 98 15 98 4 0 8 -34 8 -75z m-80 13 c-3 -7 -5 -2 -5 12 0 14
2 19 5 13 2 -7 2 -19 0 -25z m748 -54 c-12 -31 -14 -33 -9 -9 3 17 6 41 6 55
0 19 2 21 9 8 6 -10 3 -30 -6 -54z m-707 11 c-3 -3 -9 2 -12 12 -6 14 -5 15 5
6 7 -7 10 -15 7 -18z m654 -64 c-6 -4 -15 -18 -21 -31 l-10 -25 0 24 c-1 27
31 70 37 51 3 -7 0 -15 -6 -19z m-608 -13 c-10 -13 -20 -25 -21 -27 -1 -1 -7
0 -13 4 -14 9 16 45 38 45 12 0 12 -4 -4 -22z m646 -18 c-7 -4 -9 -16 -6 -27
4 -11 2 -31 -4 -44 -10 -22 -10 -22 -7 9 2 17 0 32 -5 32 -4 0 -8 -18 -8 -40
0 -22 5 -40 10 -40 6 0 10 -7 10 -15 0 -8 -4 -15 -8 -15 -5 0 -8 -66 -7 -147
2 -139 2 -144 -10 -87 -8 41 -10 113 -5 224 5 145 8 164 25 177 18 12 20 12
23 -3 2 -9 -1 -20 -8 -24z m-633 -12 c-3 -8 -6 -5 -6 6 -1 11 2 17 5 13 3 -3
4 -12 1 -19z m540 -78 c-1 -11 -5 -20 -9 -20 -10 0 -10 4 -2 24 8 22 13 20 11
-4z m-397 -34 c0 -13 7 -27 16 -30 10 -4 14 -15 12 -33 -5 -42 -26 -40 -30 4
-2 24 -8 37 -15 36 -13 -3 -18 29 -6 40 13 14 23 6 23 -17z m439 -60 c0 -41
-4 -87 -8 -102 -6 -19 -8 7 -7 78 0 58 4 104 8 102 4 -3 7 -38 7 -78z m-62 -6
c-1 -48 -6 -71 -16 -75 -10 -4 -12 2 -8 27 3 18 9 52 12 76 10 63 15 51 12
-28z m-380 -152 c-3 -8 -6 -5 -6 6 -1 11 2 17 5 13 3 -3 4 -12 1 -19z m23 -22
c0 -28 -4 -34 -19 -33 -11 0 -19 4 -17 7 9 21 30 60 33 60 2 0 3 -15 3 -34z
m410 -83 c-6 -25 -8 -53 -5 -64 5 -14 2 -17 -9 -13 -13 5 -16 -1 -16 -30 0
-25 -4 -36 -15 -36 -10 0 -15 10 -15 29 0 16 7 34 15 41 9 8 15 29 15 56 0 34
3 42 15 38 12 -5 15 3 16 37 2 33 3 37 6 15 3 -16 0 -49 -7 -73z m-514 30
c-10 -10 -19 5 -10 18 6 11 8 11 12 0 2 -7 1 -15 -2 -18z m431 5 c-3 -8 -6 -5
-6 6 -1 11 2 17 5 13 3 -3 4 -12 1 -19z m-653 -7 c4 -5 -3 -7 -14 -4 -23 6
-26 13 -6 13 8 0 17 -4 20 -9z m331 -20 c3 -5 1 -12 -5 -16 -5 -3 -10 1 -10 9
0 18 6 21 15 7z m335 -20 c0 -37 -16 -49 -24 -18 -9 35 -7 47 9 47 10 0 15
-10 15 -29z m125 -91 c4 -25 4 -31 -4 -19 -5 8 -12 40 -15 70 -5 55 2 36 19
-51z m-875 80 c0 -5 -5 -10 -11 -10 -5 0 -7 5 -4 10 3 6 8 10 11 10 2 0 4 -4
4 -10z m386 -27 c-11 -11 -19 6 -11 24 8 17 8 17 12 0 3 -10 2 -21 -1 -24z
m107 30 c-7 -2 -19 -2 -25 0 -7 3 -2 5 12 5 14 0 19 -2 13 -5z m-343 -23 c0
-5 -4 -10 -10 -10 -5 0 -10 5 -10 10 0 6 5 10 10 10 6 0 10 -4 10 -10z m417 4
c-3 -3 -12 -4 -19 -1 -8 3 -5 6 6 6 11 1 17 -2 13 -5z m-30 -36 c-3 -8 -6 -5
-6 6 -1 11 2 17 5 13 3 -3 4 -12 1 -19z m-127 0 c0 -9 4 -8 11 2 8 12 9 10 4
-7 -8 -28 -1 -29 28 -2 l22 20 7 -23 c9 -33 8 -57 -1 -33 -7 16 -10 9 -15 -30
-4 -27 -9 -58 -11 -67 -3 -16 5 -18 56 -18 44 0 59 -4 59 -14 0 -8 8 -16 18
-18 9 -2 -17 -3 -58 -3 -41 1 -81 -4 -89 -9 -12 -9 -13 -7 -9 12 4 12 2 22 -3
22 -5 0 -9 -9 -9 -19 0 -10 -7 -22 -16 -25 -32 -12 -50 -5 -61 24 -6 17 -7 30
-2 30 5 0 9 -4 9 -10 0 -5 5 -10 10 -10 6 0 10 6 9 13 -2 6 1 27 5 45 5 22 4
38 -4 47 -9 11 -10 19 -1 28 6 8 8 17 5 20 -4 3 -4 13 -1 22 8 18 37 20 37 3z
m-256 -33 c3 -9 0 -15 -9 -15 -9 0 -12 6 -9 15 4 8 7 15 9 15 2 0 5 -7 9 -15z
m696 -11 c0 -14 -4 -23 -10 -19 -5 3 -10 15 -10 26 0 10 5 19 10 19 6 0 10
-12 10 -26z m-591 -52 c-1 -20 -3 -29 -6 -19 -2 9 -11 17 -18 17 -23 0 -29 22
-10 36 25 19 35 9 34 -34z m-134 8 c0 -7 -10 -16 -23 -21 -20 -8 -22 -6 -20
20 2 25 5 28 23 21 11 -4 20 -13 20 -20z m419 4 c-1 -14 -5 -28 -8 -31 -11
-11 -36 7 -36 26 0 17 10 24 41 30 3 0 5 -11 3 -25z m386 -84 l12 -22 -134 2
c-73 2 -151 5 -173 8 -34 5 -37 7 -15 12 13 3 47 3 75 -1 27 -4 89 -8 137 -8
l86 -1 -11 35 -10 35 -84 0 c-49 0 -83 4 -83 10 0 6 33 10 80 10 57 0 80 4 81
13 1 6 7 -7 14 -29 7 -23 18 -52 25 -64z m-573 58 c-3 -7 -5 -2 -5 12 0 14 2
19 5 13 2 -7 2 -19 0 -25z m456 -38 c44 0 78 -2 76 -5 -12 -11 -201 -7 -212 5
-10 10 -5 11 22 6 18 -3 70 -6 114 -6z m-733 -40 c0 -5 -4 -10 -10 -10 -5 0
-10 5 -10 10 0 6 5 10 10 10 6 0 10 -4 10 -10z"/>
<path d="M4338 3146 c-53 -19 -83 -40 -111 -78 -72 -98 -60 -229 30 -308 76
-66 163 -78 252 -34 127 64 165 218 84 337 -53 77 -170 115 -255 83z"/>
<path d="M2536 1601 c-4 -7 -5 -15 -2 -18 9 -9 19 4 14 18 -4 11 -6 11 -12 0z"/>
<path d="M2595 1538 c-3 -29 -9 -62 -12 -73 -3 -13 -2 -17 5 -10 10 10 27 135
18 135 -2 0 -7 -24 -11 -52z"/>
<path d="M2622 1430 c14 -4 41 -4 60 0 28 7 24 8 -27 8 -46 0 -54 -2 -33 -8z"/>
<path d="M2730 3636 c0 -2 7 -7 16 -10 8 -3 12 -2 9 4 -6 10 -25 14 -25 6z"/>
<path d="M2524 3584 c-18 -14 -18 -14 6 -3 31 14 36 19 24 19 -6 0 -19 -7 -30
-16z"/>
<path d="M2344 3216 c-6 -16 14 -61 23 -52 3 3 0 13 -7 22 -11 13 -11 17 -1
24 9 5 10 10 2 14 -6 4 -14 1 -17 -8z"/>
<path d="M2381 3164 c0 -11 3 -14 6 -6 3 7 2 16 -1 19 -3 4 -6 -2 -5 -13z"/>
<path d="M1952 3054 c-12 -8 -20 -20 -16 -25 4 -6 11 -6 20 2 12 10 13 8 8 -7
-6 -16 -5 -17 7 -6 7 6 22 12 34 13 18 0 18 1 2 8 -10 4 -18 11 -17 16 3 16
-14 16 -38 -1z"/>
<path d="M2060 3061 c0 -6 -7 -11 -17 -11 -53 0 48 -20 121 -24 16 -1 32 -8
34 -16 4 -13 3 -13 -10 -2 -10 8 -19 9 -22 4 -3 -6 6 -13 21 -17 21 -5 24 -8
12 -16 -7 -5 -9 -9 -3 -9 5 0 19 7 30 15 18 15 18 15 0 8 -14 -4 -17 -3 -12 6
4 7 -2 19 -16 30 -18 15 -26 17 -37 8 -12 -10 -14 -9 -8 6 3 9 3 17 -1 18 -4
0 -26 2 -49 5 -27 3 -43 1 -43 -5z m70 -11 c0 -5 -7 -10 -16 -10 -8 0 -12 5
-9 10 3 6 10 10 16 10 5 0 9 -4 9 -10z"/>
<path d="M2392 3038 c-7 -7 -12 -20 -12 -29 0 -13 6 -16 23 -11 18 5 19 7 5
10 -10 2 -18 8 -18 14 0 6 9 8 21 5 16 -4 18 -3 8 9 -14 17 -12 17 -27 2z"/>
<path d="M1892 3007 c-19 -20 -19 -24 -5 -42 15 -20 15 -20 10 3 -3 12 -1 22
4 22 5 0 9 -5 9 -11 0 -5 5 -7 11 -3 8 4 8 9 0 17 -6 6 -11 16 -11 22 0 5 4 4
9 -4 5 -7 14 -12 20 -10 6 2 3 9 -8 16 -16 10 -22 8 -39 -10z"/>
<path d="M2028 2983 c7 -3 16 -2 19 1 4 3 -2 6 -13 5 -11 0 -14 -3 -6 -6z"/>
<path d="M1961 2951 c-17 -16 -31 -34 -31 -41 0 -7 13 2 29 19 16 17 33 31 37
31 4 0 -2 -10 -14 -23 -12 -13 -22 -31 -22 -39 0 -26 -11 -48 -21 -42 -5 3 -9
2 -10 -3 0 -4 -2 -15 -4 -24 -2 -12 3 -15 16 -12 20 6 49 -12 49 -30 0 -5 -9
-2 -20 8 -14 13 -24 15 -31 8 -11 -11 -2 -43 13 -43 6 0 5 6 -2 15 -7 8 -8 15
-2 15 15 0 35 -28 28 -39 -4 -5 -2 -12 4 -16 5 -3 10 0 11 7 0 7 5 2 12 -10
11 -24 28 -25 82 -6 l20 7 -20 -16 c-19 -16 -18 -16 12 -5 17 7 36 22 42 35 6
13 16 21 21 18 15 -9 12 8 -6 34 -13 17 -15 36 -11 77 5 48 3 54 -13 54 -10 0
-22 5 -25 10 -4 6 -11 8 -16 5 -7 -5 -44 8 -90 32 -4 1 -21 -10 -38 -26z m34
-40 c-3 -6 -11 -11 -17 -11 -6 0 -6 6 2 15 14 17 26 13 15 -4z m100 9 c3 -5 1
-10 -4 -10 -6 0 -11 5 -11 10 0 6 2 10 4 10 3 0 8 -4 11 -10z m-35 -35 c37
-19 37 -22 2 -23 -15 0 -32 -1 -37 -2 -25 -5 -45 1 -45 14 0 8 10 17 23 19 12
2 23 5 25 6 2 0 16 -6 32 -14z m34 -104 c10 -11 15 -25 11 -30 -3 -6 -1 -11 6
-11 7 0 10 -3 7 -6 -4 -3 -17 0 -30 7 -12 7 -27 12 -31 11 -15 -4 -47 19 -47
33 0 23 63 19 84 -4z"/>
<path d="M1851 2938 c-9 -30 -8 -81 3 -175 4 -32 34 -82 50 -83 5 0 3 7 -4 15
-7 9 -10 18 -6 22 9 10 18 -3 20 -31 0 -13 3 -22 5 -20 2 2 12 -3 22 -12 10
-9 25 -14 34 -10 9 3 13 2 10 -4 -3 -6 2 -10 13 -10 10 0 24 -10 31 -22 l11
-23 -6 23 c-3 13 -1 22 6 22 12 0 10 -34 -4 -75 -5 -13 -2 -12 7 4 11 18 16
21 19 10 3 -8 3 -2 1 13 -3 15 -2 37 2 48 6 17 8 18 21 6 8 -8 14 -19 14 -25
0 -6 5 -11 10 -11 6 0 10 9 10 20 0 20 12 29 45 34 25 4 86 66 78 80 -5 7 -9
5 -11 -6 -4 -20 -18 -24 -24 -7 -2 6 -12 1 -22 -10 -11 -12 -14 -21 -8 -21 19
0 14 -17 -7 -23 -14 -3 -18 -1 -14 9 3 10 0 12 -10 8 -8 -3 -17 -14 -20 -25
-3 -10 -11 -19 -17 -19 -7 0 -10 7 -6 15 3 8 4 15 2 15 -14 0 -73 -26 -78 -34
-5 -7 -8 -5 -8 6 0 9 -19 25 -45 38 -25 12 -56 38 -69 57 -13 19 -26 29 -28
22 -2 -6 -9 5 -15 25 -7 22 -7 36 -1 36 5 0 7 4 4 8 -5 8 6 63 20 97 7 18 6
19 -10 6 -16 -13 -17 -12 -11 12 10 38 -1 34 -14 -5z m39 -210 c0 -6 -6 -5
-15 2 -8 7 -15 14 -15 16 0 2 7 1 15 -2 8 -4 15 -11 15 -16z m320 -22 c0 -3
-4 -8 -10 -11 -5 -3 -10 -1 -10 4 0 6 5 11 10 11 6 0 10 -2 10 -4z m-250 -36
c0 -5 -7 -7 -15 -4 -8 4 -15 8 -15 10 0 2 7 4 15 4 8 0 15 -4 15 -10z"/>
<path d="M2116 2956 c21 -15 30 -14 19 3 -3 6 -14 11 -23 11 -13 0 -13 -2 4
-14z"/>
<path d="M2214 2958 c-4 -6 -3 -8 3 -5 12 8 26 -56 27 -126 1 -32 -4 -51 -14
-57 -8 -5 -13 -10 -10 -11 3 0 13 -2 22 -4 20 -4 32 24 22 50 -5 13 -4 16 4
11 11 -6 18 19 13 47 -1 4 -2 18 -3 31 -1 15 -7 22 -15 19 -8 -3 -13 3 -13 18
0 19 2 21 10 9 6 -9 10 -10 10 -3 0 7 -9 17 -19 23 -25 13 -28 13 -37 -2z m53
-105 c-3 -10 -5 -2 -5 17 0 19 2 27 5 18 2 -10 2 -26 0 -35z m-10 -75 c-3 -8
-6 -5 -6 6 -1 11 2 17 5 13 3 -3 4 -12 1 -19z"/>
<path d="M2171 2925 c-1 -5 -4 -31 -7 -57 -4 -43 -3 -47 16 -45 17 1 20 6 15
22 -4 11 -10 36 -15 55 -4 19 -8 31 -9 25z"/>
<path d="M2071 2608 c-1 -14 3 -28 8 -30 4 -1 0 -21 -11 -43 -10 -23 -16 -30
-14 -16 4 17 2 21 -6 13 -8 -8 -8 -19 0 -39 9 -23 20 -96 24 -150 1 -7 4 -13
7 -13 3 0 7 -15 8 -33 4 -53 24 -117 36 -110 6 4 8 0 4 -9 -9 -24 4 -30 20
-10 11 15 12 13 2 -13 -5 -16 -7 -26 -3 -23 10 10 43 -34 37 -49 -7 -17 13
-17 21 0 3 6 3 2 0 -10 -4 -18 -2 -22 10 -17 9 3 16 14 16 23 0 10 7 18 15 18
8 0 15 -4 15 -8 0 -4 3 -16 6 -26 5 -15 4 -16 -5 -3 -10 13 -13 12 -26 -5 -9
-10 -14 -23 -12 -29 6 -17 35 -14 53 5 15 17 15 21 -4 59 -12 26 -22 36 -26
28 -3 -7 -5 -4 -2 8 3 16 -1 21 -18 20 -11 -1 -24 -5 -28 -11 -5 -6 -8 -5 -8
3 0 7 8 19 18 28 25 21 18 64 -9 57 -13 -4 -19 0 -19 11 0 9 5 15 11 13 6 -1
18 17 27 40 14 36 14 45 3 55 -8 7 -11 8 -8 2 3 -6 2 -24 -3 -40 l-10 -29 3
33 c2 17 -1 32 -6 32 -5 0 -7 -17 -4 -40 6 -44 -8 -56 -16 -13 -7 38 7 68 32
69 11 1 26 2 31 3 6 0 10 13 10 27 0 14 -4 23 -9 20 -10 -7 -34 18 -25 27 3 3
1 14 -6 24 -10 16 -10 16 -5 -3 8 -30 -21 -40 -35 -13 -6 11 -9 25 -6 32 2 7
5 5 5 -5 1 -9 5 -19 9 -22 14 -9 12 38 -4 72 -8 18 -16 41 -17 52 -1 22 -23
34 -33 19 -4 -6 -11 -6 -20 2 -8 6 -14 8 -15 3 -1 -5 -5 2 -9 16 l-8 25 -1
-27z m62 -104 c-7 -19 -23 -7 -23 18 0 17 3 18 14 8 8 -6 12 -18 9 -26z m-56
-26 c-3 -8 -6 -5 -6 6 -1 11 2 17 5 13 3 -3 4 -12 1 -19z m63 -18 c0 -5 -2
-10 -4 -10 -3 0 -8 5 -11 10 -3 6 -1 10 4 10 6 0 11 -4 11 -10z m20 -24 c0 -2
-6 -9 -14 -15 -11 -9 -16 -9 -22 0 -4 7 -3 9 4 5 6 -3 13 -2 17 4 6 10 15 14
15 6z m12 -69 c-5 -20 -6 -20 -12 -1 -4 10 -5 25 -2 32 8 22 21 -6 14 -31z
m-62 -11 c0 -3 -4 -8 -10 -11 -5 -3 -10 -1 -10 4 0 6 5 11 10 11 6 0 10 -2 10
-4z m33 -83 c3 -43 5 -79 3 -80 -6 -6 -36 138 -31 147 15 24 23 5 28 -67z m24
-35 c1 -17 8 -35 15 -39 9 -6 10 -11 2 -19 -8 -8 -14 0 -22 31 -9 36 -9 59 1
59 1 0 3 -14 4 -32z m-48 -11 c0 -21 -1 -21 -9 -2 -12 28 -12 37 0 30 6 -3 10
-16 9 -28z"/>
<path d="M2505 2577 c-4 -10 -5 -21 -1 -24 10 -10 18 4 13 24 -4 17 -4 17 -12
0z"/>
<path d="M2437 1994 c9 -15 19 -22 21 -15 2 6 -3 18 -11 26 -24 24 -29 18 -10
-11z"/>
<path d="M2441 1947 c9 -7 14 -18 11 -26 -3 -9 0 -11 8 -6 9 5 10 1 6 -16 -5
-17 -4 -20 3 -9 16 26 2 70 -23 70 -18 -1 -19 -2 -5 -13z"/>
<path d="M2484 1886 c-8 -22 3 -33 18 -18 9 9 9 15 0 24 -9 9 -13 7 -18 -6z"/>
<path d="M2497 1813 c-4 -3 -7 -11 -7 -17 0 -6 5 -5 12 2 6 6 9 14 7 17 -3 3
-9 2 -12 -2z"/>
<path d="M2084 1594 c3 -9 6 -22 6 -30 0 -9 5 -12 10 -9 17 10 12 55 -6 55
-11 0 -14 -5 -10 -16z"/>
<path d="M2410 1591 c0 -6 4 -13 10 -16 6 -3 7 1 4 9 -7 18 -14 21 -14 7z"/>
<path d="M2185 1550 c-3 -5 -1 -10 4 -10 6 0 11 5 11 10 0 6 -2 10 -4 10 -3 0
-8 -4 -11 -10z"/>
<path d="M2086 1531 c-3 -5 -6 -28 -7 -53 -3 -69 37 -129 79 -118 l24 5 -26
24 c-29 27 -60 110 -50 134 6 17 -11 24 -20 8z m17 -91 c-3 -11 0 -20 6 -20 6
0 11 -4 11 -10 0 -5 -4 -10 -9 -10 -11 0 -32 56 -24 64 11 11 21 -4 16 -24z
m47 -56 c0 -8 -19 -13 -24 -6 -3 5 1 9 9 9 8 0 15 -2 15 -3z"/>
<path d="M2160 1510 c-13 -8 -13 -11 3 -27 16 -16 17 -16 17 10 0 30 0 30 -20
17z"/>
<path d="M2338 1444 c13 -9 26 -13 30 -9 8 8 -17 25 -38 25 -9 0 -6 -6 8 -16z"/>
</g>
</svg>
